<?xml version="1.0" encoding="UTF-8" standalone="no"?>
<!-- Created with Inkscape (http://www.inkscape.org/) -->

<svg
   version="1.1"
   id="svg25"
   width="467.1235"
   height="73.421997"
   viewBox="0 0 467.12352 73.422"
   sodipodi:docname="logo-travixis-final.pdf"
   xmlns:inkscape="http://www.inkscape.org/namespaces/inkscape"
   xmlns:sodipodi="http://sodipodi.sourceforge.net/DTD/sodipodi-0.dtd"
   xmlns="http://www.w3.org/2000/svg"
   xmlns:svg="http://www.w3.org/2000/svg">
  <defs
     id="defs29">
    <clipPath
       clipPathUnits="userSpaceOnUse"
       id="clipPath321">
      <path
         d="M 0,1024 H 1024 V 0 H 0 Z"
         id="path319" />
    </clipPath>
    <clipPath
       clipPathUnits="userSpaceOnUse"
       id="clipPath341">
      <path
         d="M 0,1024 H 1024 V 0 H 0 Z"
         id="path339" />
    </clipPath>
  </defs>
  <sodipodi:namedview
     id="namedview27"
     pagecolor="#ffffff"
     bordercolor="#000000"
     borderopacity="0.25"
     inkscape:showpageshadow="2"
     inkscape:pageopacity="0.0"
     inkscape:pagecheckerboard="0"
     inkscape:deskcolor="#d1d1d1"
     showgrid="false" />
  <g
     id="g287"
     inkscape:groupmode="layer"
     inkscape:label="Page 5"
     transform="matrix(1.3333333,0,0,-1.3333333,-355.3872,261.9382)">
    <path
       d="M 0,0 H 1024 V 1024 H 0 Z"
       style="fill:#01254f;fill-opacity:1;fill-rule:nonzero;stroke:none"
       id="path289" />
    <g
       id="g315">
      <g
         id="g317"
         clip-path="url(#clipPath321)">
        <g
           id="g323"
           transform="translate(290.2405,195.8077)">
          <path
             d="M 0,0 C 2.564,-0.591 5.449,-2.233 8.011,-4.27 7.685,-4.598 7.423,-4.993 7.091,-5.649 5.908,-7.752 4.729,-9.788 3.609,-11.892 c -1.18,-2.101 -2.299,-4.205 -3.478,-6.309 -1.839,-0.72 -3.742,-1.379 -5.712,-2.102 -5.189,-1.839 -3.809,-4.928 0.658,-3.614 1.837,0.525 3.743,0.986 5.643,1.445 1.514,-1.249 3.088,-2.43 4.664,-3.68 1.578,-1.248 3.087,-2.498 4.663,-3.744 2.366,-1.973 1.579,-1.644 4.86,-0.591 -4.33,5.716 -6.896,8.015 -6.631,9.396 22.128,9.265 32.704,-11.895 13.789,-13.866 C -40.452,-41.135 -29.749,6.705 0,0 m 22.264,-44.744 c -5.058,-4.275 -9.786,-8.018 -11.822,-9.336 -0.721,-0.454 -2.103,-0.454 -2.89,0 -44.656,30.688 -5.518,11.105 14.712,9.336 M 18.059,0 c 10.704,2.434 21.344,-3.94 23.774,-14.521 1.315,-5.323 0.459,-10.119 -2.43,-14.652 -2.229,19.581 -31.786,14.126 -31.786,14.126 -0.591,1.119 0.987,4.534 3.151,11.633 2.107,1.575 4.007,2.627 7.291,3.414"
             style="fill:#ffffff;fill-opacity:1;fill-rule:evenodd;stroke:none"
             id="path325" />
        </g>
        <g
           id="g327"
           transform="translate(308.2998,195.8077)">
          <path
             d="m 0,0 c 10.703,2.434 21.344,-3.94 23.774,-14.521 1.315,-5.323 0.459,-10.119 -2.43,-14.652 -2.229,19.581 -31.786,14.126 -31.786,14.126 -0.592,1.119 0.986,4.534 3.151,11.633 C -5.184,-1.839 -3.285,-0.787 0,0"
             style="fill:#e70000;fill-opacity:1;fill-rule:evenodd;stroke:none"
             id="path329" />
        </g>
      </g>
    </g>
    <text
       xml:space="preserve"
       transform="matrix(1,0,0,-1,517.332,163.123)"
       style="font-variant:normal;font-weight:normal;font-stretch:normal;font-size:16.3951px;font-family:'Bebas Neue';-inkscape-font-specification:BebasNeue-Regular;writing-mode:lr-tb;fill:#ffffff;fill-opacity:1;fill-rule:nonzero;stroke:none"
       id="text333"><tspan
         x="0 9.2468367 19.133081 28.527473 38.069424 47.299862 56.2188 62.121033 71.679375 81.532829 91.419075"
         y="0"
         sodipodi:role="line"
         id="tspan331">TRAVEL CARE</tspan></text>
    <g
       id="g335">
      <g
         id="g337"
         clip-path="url(#clipPath341)">
        <g
           id="g343"
           transform="translate(348.9687,174.5285)">
          <path
             d="M 0,0 H -6.403 V 4.672 H 12.269 V 0 H 5.897 V -16.17 H 0 Z"
             style="fill:#ffffff;fill-opacity:1;fill-rule:nonzero;stroke:none"
             id="path345" />
        </g>
        <g
           id="g347"
           transform="translate(378.3276,173.7533)">
          <path
             d="m 0,0 c -0.615,0.537 -1.53,0.806 -2.739,0.806 h -3.276 v -6.108 h 3.276 c 1.209,0 2.124,0.263 2.739,0.79 0.615,0.528 0.925,1.277 0.925,2.248 C 0.925,-1.292 0.615,-0.537 0,0 m -2.796,-9.855 h -3.219 v -5.54 h -5.897 V 5.447 h 9.53 c 1.886,0 3.524,-0.31 4.914,-0.935 1.39,-0.626 2.46,-1.52 3.215,-2.683 0.754,-1.157 1.131,-2.521 1.131,-4.093 0,-1.509 -0.351,-2.821 -1.054,-3.943 C 5.116,-7.333 4.108,-8.201 2.801,-8.842 l 4.496,-6.553 H 0.982 Z"
             style="fill:#ffffff;fill-opacity:1;fill-rule:nonzero;stroke:none"
             id="path349" />
        </g>
        <g
           id="g351"
           transform="translate(403.671,166.7559)">
          <path
             d="M 0,0 -2.682,6.672 -5.364,0 Z M 1.726,-4.346 H -7.09 l -1.639,-4.052 h -6.015 L -5.54,12.444 H 0.264 L 9.499,-8.398 H 3.364 Z"
             style="fill:#ffffff;fill-opacity:1;fill-rule:nonzero;stroke:none"
             id="path353" />
        </g>
        <g
           id="g355"
           transform="translate(441.9961,188.9065)">
          <path
             d="m 0,0 -13.132,-30.548 h -5.808 l -8.905,20.842 h 6.372 L -15.814,-23.282 -5.829,0 Z"
             style="fill:#ffffff;fill-opacity:1;fill-rule:nonzero;stroke:none"
             id="path357" />
        </g>
        <path
           d="m 441.996,179.2 h 5.891 v -20.842 h -5.891 z"
           style="fill:#ffffff;fill-opacity:1;fill-rule:nonzero;stroke:none"
           id="path359" />
        <g
           id="g361"
           transform="translate(468.2284,158.3581)">
          <path
             d="M 0,0 -4.32,6.46 -8.579,0 h -6.728 l 7.596,10.543 -7.266,10.299 h 6.636 l 4.176,-6.01 4.103,6.01 H 6.315 L -0.951,10.78 6.791,0 Z"
             style="fill:#ffffff;fill-opacity:1;fill-rule:nonzero;stroke:none"
             id="path363" />
        </g>
        <path
           d="m 479.37,179.2 h 5.891 v -20.842 h -5.891 z"
           style="fill:#ffffff;fill-opacity:1;fill-rule:nonzero;stroke:none"
           id="path365" />
        <g
           id="g367"
           transform="translate(494.8534,158.5648)">
          <path
             d="m 0,0 c -1.592,0.413 -2.873,0.972 -3.866,1.674 l 1.933,4.341 c 0.93,-0.62 2.016,-1.116 3.246,-1.488 1.23,-0.372 2.439,-0.558 3.628,-0.558 2.263,0 3.4,0.558 3.4,1.695 0,0.589 -0.331,1.034 -0.972,1.323 -0.64,0.289 -1.684,0.589 -3.111,0.91 -1.571,0.335 -2.873,0.697 -3.927,1.085 -1.055,0.387 -1.954,1.008 -2.708,1.86 -0.755,0.853 -1.137,2.005 -1.137,3.452 0,1.272 0.351,2.419 1.044,3.442 0.692,1.018 1.726,1.83 3.111,2.424 1.374,0.599 3.07,0.894 5.075,0.894 1.374,0 2.718,-0.155 4.051,-0.46 1.334,-0.31 2.502,-0.76 3.514,-1.354 L 11.462,14.863 C 9.478,15.933 7.555,16.47 5.685,16.47 4.517,16.47 3.659,16.294 3.132,15.948 2.594,15.602 2.326,15.147 2.326,14.594 c 0,-0.558 0.31,-0.971 0.95,-1.25 0.631,-0.28 1.654,-0.569 3.07,-0.864 1.582,-0.341 2.905,-0.702 3.938,-1.09 1.044,-0.388 1.954,-1.003 2.718,-1.845 0.765,-0.842 1.148,-1.99 1.148,-3.437 0,-1.25 -0.352,-2.387 -1.044,-3.4 C 12.403,1.695 11.369,0.889 9.974,0.289 8.589,-0.32 6.894,-0.62 4.91,-0.62 3.225,-0.62 1.592,-0.413 0,0"
             style="fill:#ffffff;fill-opacity:1;fill-rule:nonzero;stroke:none"
             id="path369" />
        </g>
      </g>
    </g>
  </g>
</svg>
