<?xml version="1.0" encoding="UTF-8" standalone="no"?>
<!-- Created with Inkscape (http://www.inkscape.org/) -->

<svg
   version="1.1"
   id="svg25"
   width="406.10986"
   height="338.1445"
   viewBox="0 0 406.10988 338.14451"
   xmlns="http://www.w3.org/2000/svg"
   xmlns:svg="http://www.w3.org/2000/svg">
  <defs
     id="defs29">
    <clipPath
       clipPathUnits="userSpaceOnUse"
       id="clipPath297">
      <path
         d="M 0,1024 H 1024 V 0 H 0 Z"
         id="path295" />
    </clipPath>
  </defs>
  <g
     id="g287"
     transform="matrix(1.3333333,0,0,-1.3333333,-502.31688,939.30545)">
    <path
       d="M 0,0 H 1024 V 1024 H 0 Z"
       style="fill:#01254f;fill-opacity:1;fill-rule:nonzero;stroke:none"
       id="path289" />
    <g
       id="g291">
      <g
         id="g293"
         clip-path="url(#clipPath297)">
        <g
           id="g299"
           transform="translate(485.8885,701.504)">
          <path
             d="m 0,0 c 11.81,-2.724 25.097,-10.284 36.895,-19.665 -1.503,-1.509 -2.71,-3.33 -4.238,-6.353 C 27.207,-35.7 21.78,-45.076 16.623,-54.77 11.185,-64.447 6.033,-74.134 0.601,-83.823 c -8.469,-3.317 -17.231,-6.353 -26.306,-9.683 -23.895,-8.467 -17.542,-22.694 3.03,-16.641 8.461,2.416 17.243,4.537 25.992,6.652 6.972,-5.751 14.22,-11.19 21.48,-16.947 7.267,-5.747 14.214,-11.504 21.474,-17.243 10.896,-9.088 7.272,-7.574 22.381,-2.724 -19.941,26.326 -31.757,36.914 -30.537,43.273 101.91,42.672 150.616,-54.782 63.507,-63.857 C -186.303,-189.444 -137.009,30.879 0,0 m 102.536,-206.068 c -23.295,-19.689 -45.069,-36.926 -54.445,-42.997 -3.322,-2.091 -9.687,-2.091 -13.311,0 -205.66,141.334 -25.41,51.145 67.756,42.997 M 83.172,0 c 49.293,11.209 98.298,-18.145 109.49,-66.874 6.057,-24.516 2.115,-46.603 -11.192,-67.482 -10.264,90.182 -146.39,65.059 -146.39,65.059 -2.723,5.152 4.544,20.879 14.513,53.575 C 59.295,-8.469 68.045,-3.625 83.172,0"
             style="fill:#ffffff;fill-opacity:1;fill-rule:evenodd;stroke:none"
             id="path301" />
        </g>
        <g
           id="g303"
           transform="translate(569.0606,701.504)">
          <path
             d="m 0,0 c 49.293,11.209 98.298,-18.145 109.49,-66.874 6.057,-24.516 2.114,-46.603 -11.192,-67.482 -10.264,90.182 -146.39,65.059 -146.39,65.059 -2.723,5.152 4.544,20.879 14.513,53.575 C -23.877,-8.469 -15.128,-3.625 0,0"
             style="fill:#e70000;fill-opacity:1;fill-rule:evenodd;stroke:none"
             id="path305" />
        </g>
      </g>
    </g>
  </g>
</svg>
